<mxfile host="app.diagrams.net" agent="Mozilla/5.0 (Macintosh; Intel Mac OS X 10_15_7) AppleWebKit/537.36 (KHTML, like Gecko) Chrome/140.0.0.0 Safari/537.36 Edg/140.0.0.0" version="28.2.5">
  <diagram name="第 1 页" id="mnFQVvG62Rh3zPF-ihMT">
    <mxGraphModel dx="1348" dy="1453" grid="1" gridSize="10" guides="1" tooltips="1" connect="1" arrows="1" fold="1" page="1" pageScale="1" pageWidth="827" pageHeight="1169" math="0" shadow="0">
      <root>
        <mxCell id="0" />
        <mxCell id="1" parent="0" />
        <mxCell id="vuQjMaOmqYNS7_a6hu1z-4" style="edgeStyle=orthogonalEdgeStyle;rounded=0;orthogonalLoop=1;jettySize=auto;html=1;entryX=0.5;entryY=0;entryDx=0;entryDy=0;" edge="1" parent="1" source="yU_CyNfrzpjY19r-bfCw-1" target="yU_CyNfrzpjY19r-bfCw-3">
          <mxGeometry relative="1" as="geometry" />
        </mxCell>
        <mxCell id="yU_CyNfrzpjY19r-bfCw-1" value="测试Prompt" style="rounded=1;whiteSpace=wrap;html=1;" parent="1" vertex="1">
          <mxGeometry x="90" y="180" width="120" height="60" as="geometry" />
        </mxCell>
        <mxCell id="vuQjMaOmqYNS7_a6hu1z-10" style="edgeStyle=orthogonalEdgeStyle;rounded=0;orthogonalLoop=1;jettySize=auto;html=1;entryX=1;entryY=0.5;entryDx=0;entryDy=0;" edge="1" parent="1" source="yU_CyNfrzpjY19r-bfCw-2" target="yU_CyNfrzpjY19r-bfCw-1">
          <mxGeometry relative="1" as="geometry" />
        </mxCell>
        <mxCell id="vuQjMaOmqYNS7_a6hu1z-13" style="edgeStyle=orthogonalEdgeStyle;rounded=0;orthogonalLoop=1;jettySize=auto;html=1;entryX=0;entryY=0.5;entryDx=0;entryDy=0;" edge="1" parent="1" source="yU_CyNfrzpjY19r-bfCw-2" target="yU_CyNfrzpjY19r-bfCw-8">
          <mxGeometry relative="1" as="geometry" />
        </mxCell>
        <mxCell id="yU_CyNfrzpjY19r-bfCw-2" value="&amp;nbsp;Source Program" style="rounded=1;whiteSpace=wrap;html=1;" parent="1" vertex="1">
          <mxGeometry x="280" y="180" width="110" height="60" as="geometry" />
        </mxCell>
        <mxCell id="vuQjMaOmqYNS7_a6hu1z-5" style="edgeStyle=orthogonalEdgeStyle;rounded=0;orthogonalLoop=1;jettySize=auto;html=1;entryX=0.5;entryY=0;entryDx=0;entryDy=0;" edge="1" parent="1" source="yU_CyNfrzpjY19r-bfCw-3" target="yU_CyNfrzpjY19r-bfCw-4">
          <mxGeometry relative="1" as="geometry" />
        </mxCell>
        <mxCell id="yU_CyNfrzpjY19r-bfCw-3" value="LLMs" style="ellipse;whiteSpace=wrap;html=1;" parent="1" vertex="1">
          <mxGeometry x="115" y="270" width="70" height="40" as="geometry" />
        </mxCell>
        <mxCell id="vuQjMaOmqYNS7_a6hu1z-6" style="edgeStyle=orthogonalEdgeStyle;rounded=0;orthogonalLoop=1;jettySize=auto;html=1;entryX=0;entryY=0.5;entryDx=0;entryDy=0;" edge="1" parent="1" source="yU_CyNfrzpjY19r-bfCw-4" target="yU_CyNfrzpjY19r-bfCw-5">
          <mxGeometry relative="1" as="geometry" />
        </mxCell>
        <mxCell id="yU_CyNfrzpjY19r-bfCw-4" value="生成的代码测试" style="rounded=0;whiteSpace=wrap;html=1;" parent="1" vertex="1">
          <mxGeometry x="95" y="350" width="110" height="60" as="geometry" />
        </mxCell>
        <mxCell id="vuQjMaOmqYNS7_a6hu1z-7" style="edgeStyle=orthogonalEdgeStyle;rounded=0;orthogonalLoop=1;jettySize=auto;html=1;" edge="1" parent="1" source="yU_CyNfrzpjY19r-bfCw-5" target="yU_CyNfrzpjY19r-bfCw-6">
          <mxGeometry relative="1" as="geometry" />
        </mxCell>
        <mxCell id="vuQjMaOmqYNS7_a6hu1z-8" value="不通过" style="edgeLabel;html=1;align=center;verticalAlign=middle;resizable=0;points=[];" vertex="1" connectable="0" parent="vuQjMaOmqYNS7_a6hu1z-7">
          <mxGeometry x="-0.2222" y="-3" relative="1" as="geometry">
            <mxPoint as="offset" />
          </mxGeometry>
        </mxCell>
        <mxCell id="vuQjMaOmqYNS7_a6hu1z-9" style="edgeStyle=orthogonalEdgeStyle;rounded=0;orthogonalLoop=1;jettySize=auto;html=1;entryX=0;entryY=0.5;entryDx=0;entryDy=0;" edge="1" parent="1" source="yU_CyNfrzpjY19r-bfCw-5" target="yU_CyNfrzpjY19r-bfCw-7">
          <mxGeometry relative="1" as="geometry" />
        </mxCell>
        <mxCell id="vuQjMaOmqYNS7_a6hu1z-12" value="通过" style="edgeLabel;html=1;align=center;verticalAlign=middle;resizable=0;points=[];" vertex="1" connectable="0" parent="vuQjMaOmqYNS7_a6hu1z-9">
          <mxGeometry x="-0.4697" y="-1" relative="1" as="geometry">
            <mxPoint as="offset" />
          </mxGeometry>
        </mxCell>
        <mxCell id="yU_CyNfrzpjY19r-bfCw-5" value="执行根据结果过滤" style="rhombus;whiteSpace=wrap;html=1;" parent="1" vertex="1">
          <mxGeometry x="250" y="250" width="120" height="90" as="geometry" />
        </mxCell>
        <mxCell id="yU_CyNfrzpjY19r-bfCw-6" value="垃圾桶" style="shape=cylinder3;whiteSpace=wrap;html=1;boundedLbl=1;backgroundOutline=1;size=15;" parent="1" vertex="1">
          <mxGeometry x="280" y="380" width="60" height="80" as="geometry" />
        </mxCell>
        <mxCell id="yU_CyNfrzpjY19r-bfCw-12" style="edgeStyle=orthogonalEdgeStyle;rounded=0;orthogonalLoop=1;jettySize=auto;html=1;entryX=0.5;entryY=0;entryDx=0;entryDy=0;" parent="1" source="yU_CyNfrzpjY19r-bfCw-7" target="yU_CyNfrzpjY19r-bfCw-11" edge="1">
          <mxGeometry relative="1" as="geometry" />
        </mxCell>
        <mxCell id="yU_CyNfrzpjY19r-bfCw-13" value="convert" style="edgeLabel;html=1;align=center;verticalAlign=middle;resizable=0;points=[];" parent="yU_CyNfrzpjY19r-bfCw-12" vertex="1" connectable="0">
          <mxGeometry x="-0.2333" relative="1" as="geometry">
            <mxPoint as="offset" />
          </mxGeometry>
        </mxCell>
        <mxCell id="yU_CyNfrzpjY19r-bfCw-7" value="可使用的测试" style="rounded=0;whiteSpace=wrap;html=1;" parent="1" vertex="1">
          <mxGeometry x="420" y="265" width="120" height="60" as="geometry" />
        </mxCell>
        <mxCell id="vuQjMaOmqYNS7_a6hu1z-3" style="edgeStyle=orthogonalEdgeStyle;rounded=0;orthogonalLoop=1;jettySize=auto;html=1;entryX=0;entryY=0.5;entryDx=0;entryDy=0;" edge="1" parent="1" source="yU_CyNfrzpjY19r-bfCw-8" target="yU_CyNfrzpjY19r-bfCw-9">
          <mxGeometry relative="1" as="geometry" />
        </mxCell>
        <mxCell id="yU_CyNfrzpjY19r-bfCw-8" value="翻译Prompt" style="rounded=1;whiteSpace=wrap;html=1;" parent="1" vertex="1">
          <mxGeometry x="590" y="180" width="120" height="60" as="geometry" />
        </mxCell>
        <mxCell id="yU_CyNfrzpjY19r-bfCw-18" style="edgeStyle=orthogonalEdgeStyle;rounded=0;orthogonalLoop=1;jettySize=auto;html=1;entryX=0.5;entryY=0;entryDx=0;entryDy=0;" parent="1" source="yU_CyNfrzpjY19r-bfCw-9" target="yU_CyNfrzpjY19r-bfCw-10" edge="1">
          <mxGeometry relative="1" as="geometry" />
        </mxCell>
        <mxCell id="yU_CyNfrzpjY19r-bfCw-9" value="LLMs" style="ellipse;whiteSpace=wrap;html=1;" parent="1" vertex="1">
          <mxGeometry x="755" y="190" width="70" height="40" as="geometry" />
        </mxCell>
        <mxCell id="yU_CyNfrzpjY19r-bfCw-16" style="edgeStyle=orthogonalEdgeStyle;rounded=0;orthogonalLoop=1;jettySize=auto;html=1;entryX=0.5;entryY=0;entryDx=0;entryDy=0;" parent="1" source="yU_CyNfrzpjY19r-bfCw-10" target="yU_CyNfrzpjY19r-bfCw-14" edge="1">
          <mxGeometry relative="1" as="geometry" />
        </mxCell>
        <mxCell id="yU_CyNfrzpjY19r-bfCw-10" value="代码翻译结果" style="rounded=0;whiteSpace=wrap;html=1;" parent="1" vertex="1">
          <mxGeometry x="730" y="270" width="120" height="60" as="geometry" />
        </mxCell>
        <mxCell id="yU_CyNfrzpjY19r-bfCw-15" style="edgeStyle=orthogonalEdgeStyle;rounded=0;orthogonalLoop=1;jettySize=auto;html=1;entryX=0;entryY=0.5;entryDx=0;entryDy=0;" parent="1" source="yU_CyNfrzpjY19r-bfCw-11" edge="1" target="yU_CyNfrzpjY19r-bfCw-14">
          <mxGeometry relative="1" as="geometry">
            <mxPoint x="610" y="520" as="targetPoint" />
          </mxGeometry>
        </mxCell>
        <mxCell id="yU_CyNfrzpjY19r-bfCw-11" value="转换成目标语言可用的测试" style="rounded=0;whiteSpace=wrap;html=1;" parent="1" vertex="1">
          <mxGeometry x="420" y="370" width="120" height="60" as="geometry" />
        </mxCell>
        <mxCell id="vuQjMaOmqYNS7_a6hu1z-15" style="edgeStyle=orthogonalEdgeStyle;rounded=0;orthogonalLoop=1;jettySize=auto;html=1;entryX=0.55;entryY=0.95;entryDx=0;entryDy=0;entryPerimeter=0;" edge="1" parent="1" source="yU_CyNfrzpjY19r-bfCw-14" target="vuQjMaOmqYNS7_a6hu1z-14">
          <mxGeometry relative="1" as="geometry">
            <mxPoint x="920" y="310" as="targetPoint" />
          </mxGeometry>
        </mxCell>
        <mxCell id="yU_CyNfrzpjY19r-bfCw-14" value="测试结果过滤" style="rhombus;whiteSpace=wrap;html=1;" parent="1" vertex="1">
          <mxGeometry x="730" y="360" width="120" height="80" as="geometry" />
        </mxCell>
        <mxCell id="vuQjMaOmqYNS7_a6hu1z-1" value="保存成功翻译的结果" style="shape=cube;whiteSpace=wrap;html=1;boundedLbl=1;backgroundOutline=1;darkOpacity=0.05;darkOpacity2=0.1;" vertex="1" parent="1">
          <mxGeometry x="730" y="460" width="120" height="80" as="geometry" />
        </mxCell>
        <mxCell id="vuQjMaOmqYNS7_a6hu1z-2" style="edgeStyle=orthogonalEdgeStyle;rounded=0;orthogonalLoop=1;jettySize=auto;html=1;entryX=0.503;entryY=-0.021;entryDx=0;entryDy=0;entryPerimeter=0;" edge="1" parent="1" source="yU_CyNfrzpjY19r-bfCw-14" target="vuQjMaOmqYNS7_a6hu1z-1">
          <mxGeometry relative="1" as="geometry" />
        </mxCell>
        <mxCell id="vuQjMaOmqYNS7_a6hu1z-11" value="" style="shape=flexArrow;endArrow=classic;html=1;rounded=0;entryX=0.5;entryY=0;entryDx=0;entryDy=0;" edge="1" parent="1" target="yU_CyNfrzpjY19r-bfCw-2">
          <mxGeometry width="50" height="50" relative="1" as="geometry">
            <mxPoint x="335" y="100" as="sourcePoint" />
            <mxPoint x="335" y="70" as="targetPoint" />
          </mxGeometry>
        </mxCell>
        <mxCell id="vuQjMaOmqYNS7_a6hu1z-18" style="edgeStyle=orthogonalEdgeStyle;rounded=0;orthogonalLoop=1;jettySize=auto;html=1;entryX=0.5;entryY=0;entryDx=0;entryDy=0;" edge="1" parent="1" source="vuQjMaOmqYNS7_a6hu1z-14" target="vuQjMaOmqYNS7_a6hu1z-17">
          <mxGeometry relative="1" as="geometry">
            <Array as="points">
              <mxPoint x="1040" y="220" />
              <mxPoint x="1260" y="220" />
            </Array>
          </mxGeometry>
        </mxCell>
        <mxCell id="vuQjMaOmqYNS7_a6hu1z-14" value="错误翻译+测试结果" style="ellipse;shape=cloud;whiteSpace=wrap;html=1;" vertex="1" parent="1">
          <mxGeometry x="930" y="180" width="160" height="80" as="geometry" />
        </mxCell>
        <mxCell id="vuQjMaOmqYNS7_a6hu1z-20" style="edgeStyle=orthogonalEdgeStyle;rounded=0;orthogonalLoop=1;jettySize=auto;html=1;" edge="1" parent="1" source="vuQjMaOmqYNS7_a6hu1z-17" target="vuQjMaOmqYNS7_a6hu1z-19">
          <mxGeometry relative="1" as="geometry" />
        </mxCell>
        <mxCell id="vuQjMaOmqYNS7_a6hu1z-17" value="错误分析" style="shape=parallelogram;perimeter=parallelogramPerimeter;whiteSpace=wrap;html=1;fixedSize=1;" vertex="1" parent="1">
          <mxGeometry x="1130" y="270" width="120" height="60" as="geometry" />
        </mxCell>
        <mxCell id="vuQjMaOmqYNS7_a6hu1z-22" style="edgeStyle=orthogonalEdgeStyle;rounded=0;orthogonalLoop=1;jettySize=auto;html=1;entryX=0.5;entryY=0;entryDx=0;entryDy=0;" edge="1" parent="1" source="vuQjMaOmqYNS7_a6hu1z-19" target="vuQjMaOmqYNS7_a6hu1z-21">
          <mxGeometry relative="1" as="geometry" />
        </mxCell>
        <mxCell id="vuQjMaOmqYNS7_a6hu1z-19" value="代码修复Prompt" style="rounded=1;whiteSpace=wrap;html=1;" vertex="1" parent="1">
          <mxGeometry x="1130" y="360" width="120" height="60" as="geometry" />
        </mxCell>
        <mxCell id="vuQjMaOmqYNS7_a6hu1z-24" style="edgeStyle=orthogonalEdgeStyle;rounded=0;orthogonalLoop=1;jettySize=auto;html=1;entryX=1;entryY=0.5;entryDx=0;entryDy=0;" edge="1" parent="1" source="vuQjMaOmqYNS7_a6hu1z-21" target="vuQjMaOmqYNS7_a6hu1z-23">
          <mxGeometry relative="1" as="geometry" />
        </mxCell>
        <mxCell id="vuQjMaOmqYNS7_a6hu1z-21" value="LLMs" style="ellipse;whiteSpace=wrap;html=1;" vertex="1" parent="1">
          <mxGeometry x="1150" y="450" width="80" height="40" as="geometry" />
        </mxCell>
        <mxCell id="vuQjMaOmqYNS7_a6hu1z-25" style="edgeStyle=orthogonalEdgeStyle;rounded=0;orthogonalLoop=1;jettySize=auto;html=1;entryX=0;entryY=0.5;entryDx=0;entryDy=0;" edge="1" parent="1" source="vuQjMaOmqYNS7_a6hu1z-23" target="yU_CyNfrzpjY19r-bfCw-14">
          <mxGeometry relative="1" as="geometry">
            <Array as="points">
              <mxPoint x="1040" y="560" />
              <mxPoint x="650" y="560" />
              <mxPoint x="650" y="400" />
            </Array>
          </mxGeometry>
        </mxCell>
        <mxCell id="vuQjMaOmqYNS7_a6hu1z-23" value="修复后的代码" style="rounded=0;whiteSpace=wrap;html=1;" vertex="1" parent="1">
          <mxGeometry x="980" y="440" width="120" height="60" as="geometry" />
        </mxCell>
        <mxCell id="vuQjMaOmqYNS7_a6hu1z-27" value="" style="shape=flexArrow;endArrow=classic;startArrow=classic;html=1;rounded=0;" edge="1" parent="1">
          <mxGeometry width="100" height="100" relative="1" as="geometry">
            <mxPoint x="560" y="640" as="sourcePoint" />
            <mxPoint x="560" y="30" as="targetPoint" />
          </mxGeometry>
        </mxCell>
        <mxCell id="vuQjMaOmqYNS7_a6hu1z-28" value="" style="shape=flexArrow;endArrow=classic;startArrow=classic;html=1;rounded=0;" edge="1" parent="1">
          <mxGeometry width="100" height="100" relative="1" as="geometry">
            <mxPoint x="920" y="640" as="sourcePoint" />
            <mxPoint x="920" y="20" as="targetPoint" />
          </mxGeometry>
        </mxCell>
      </root>
    </mxGraphModel>
  </diagram>
</mxfile>
